<mxfile host="Electron" agent="Mozilla/5.0 (Windows NT 10.0; Win64; x64) AppleWebKit/537.36 (KHTML, like Gecko) draw.io/25.0.2 Chrome/128.0.6613.186 Electron/32.2.5 Safari/537.36" version="25.0.2">
  <diagram name="Страница — 1" id="CWllZBg0RMOVptgS1Q5Q">
    <mxGraphModel dx="2345" dy="1304" grid="1" gridSize="10" guides="1" tooltips="1" connect="1" arrows="1" fold="1" page="1" pageScale="1" pageWidth="1169" pageHeight="827" math="0" shadow="0">
      <root>
        <mxCell id="0" />
        <mxCell id="1" parent="0" />
        <mxCell id="Ddjd4_vdz4T8eJ4rfSuG-3" value="" style="edgeStyle=orthogonalEdgeStyle;rounded=0;orthogonalLoop=1;jettySize=auto;html=1;" edge="1" parent="1" source="Ddjd4_vdz4T8eJ4rfSuG-1" target="Ddjd4_vdz4T8eJ4rfSuG-2">
          <mxGeometry relative="1" as="geometry" />
        </mxCell>
        <mxCell id="Ddjd4_vdz4T8eJ4rfSuG-1" value="int main()" style="shape=process;whiteSpace=wrap;html=1;backgroundOutline=1;" vertex="1" parent="1">
          <mxGeometry x="525" y="10" width="120" height="60" as="geometry" />
        </mxCell>
        <mxCell id="Ddjd4_vdz4T8eJ4rfSuG-8" style="edgeStyle=orthogonalEdgeStyle;rounded=0;orthogonalLoop=1;jettySize=auto;html=1;exitX=0.5;exitY=1;exitDx=0;exitDy=0;entryX=0.5;entryY=0;entryDx=0;entryDy=0;" edge="1" parent="1" source="Ddjd4_vdz4T8eJ4rfSuG-2" target="Ddjd4_vdz4T8eJ4rfSuG-7">
          <mxGeometry relative="1" as="geometry" />
        </mxCell>
        <mxCell id="Ddjd4_vdz4T8eJ4rfSuG-2" value="int a[n];" style="rounded=0;whiteSpace=wrap;html=1;" vertex="1" parent="1">
          <mxGeometry x="525" y="110" width="120" height="60" as="geometry" />
        </mxCell>
        <mxCell id="Ddjd4_vdz4T8eJ4rfSuG-4" value="" style="strokeWidth=2;html=1;shape=mxgraph.flowchart.annotation_2;align=left;labelPosition=right;pointerEvents=1;" vertex="1" parent="1">
          <mxGeometry x="645" y="40" width="50" height="100" as="geometry" />
        </mxCell>
        <mxCell id="Ddjd4_vdz4T8eJ4rfSuG-5" value="" style="endArrow=none;dashed=1;html=1;dashPattern=1 3;strokeWidth=2;rounded=0;entryX=0;entryY=0.5;entryDx=0;entryDy=0;entryPerimeter=0;exitX=0.5;exitY=1;exitDx=0;exitDy=0;" edge="1" parent="1" source="Ddjd4_vdz4T8eJ4rfSuG-1" target="Ddjd4_vdz4T8eJ4rfSuG-4">
          <mxGeometry width="50" height="50" relative="1" as="geometry">
            <mxPoint x="540" y="210" as="sourcePoint" />
            <mxPoint x="590" y="160" as="targetPoint" />
            <Array as="points">
              <mxPoint x="585" y="90" />
            </Array>
          </mxGeometry>
        </mxCell>
        <mxCell id="Ddjd4_vdz4T8eJ4rfSuG-6" value="#include &amp;lt;stdlib.h&amp;gt;&lt;div&gt;#include &amp;lt;ctime&amp;gt;&lt;/div&gt;&lt;div&gt;#include &amp;lt;iostream&amp;gt;&lt;/div&gt;&lt;div style=&quot;&quot;&gt;using namespace std;&lt;/div&gt;" style="text;html=1;align=left;verticalAlign=middle;resizable=0;points=[];autosize=1;strokeColor=none;fillColor=none;" vertex="1" parent="1">
          <mxGeometry x="680" y="40" width="140" height="70" as="geometry" />
        </mxCell>
        <mxCell id="Ddjd4_vdz4T8eJ4rfSuG-10" style="edgeStyle=orthogonalEdgeStyle;rounded=0;orthogonalLoop=1;jettySize=auto;html=1;exitX=0.5;exitY=1;exitDx=0;exitDy=0;" edge="1" parent="1" source="Ddjd4_vdz4T8eJ4rfSuG-7" target="Ddjd4_vdz4T8eJ4rfSuG-9">
          <mxGeometry relative="1" as="geometry" />
        </mxCell>
        <mxCell id="Ddjd4_vdz4T8eJ4rfSuG-7" value="srand(time(0))" style="rounded=0;whiteSpace=wrap;html=1;" vertex="1" parent="1">
          <mxGeometry x="525" y="190" width="120" height="60" as="geometry" />
        </mxCell>
        <mxCell id="Ddjd4_vdz4T8eJ4rfSuG-12" style="edgeStyle=orthogonalEdgeStyle;rounded=0;orthogonalLoop=1;jettySize=auto;html=1;exitX=0.5;exitY=1;exitDx=0;exitDy=0;entryX=0.5;entryY=0;entryDx=0;entryDy=0;" edge="1" parent="1" source="Ddjd4_vdz4T8eJ4rfSuG-9" target="Ddjd4_vdz4T8eJ4rfSuG-11">
          <mxGeometry relative="1" as="geometry" />
        </mxCell>
        <mxCell id="Ddjd4_vdz4T8eJ4rfSuG-15" style="edgeStyle=orthogonalEdgeStyle;rounded=0;orthogonalLoop=1;jettySize=auto;html=1;exitX=1;exitY=0.5;exitDx=0;exitDy=0;entryX=0.5;entryY=0;entryDx=0;entryDy=0;" edge="1" parent="1" source="Ddjd4_vdz4T8eJ4rfSuG-9" target="Ddjd4_vdz4T8eJ4rfSuG-14">
          <mxGeometry relative="1" as="geometry" />
        </mxCell>
        <mxCell id="Ddjd4_vdz4T8eJ4rfSuG-9" value="for(int i=0; i&amp;lt;n; i++)" style="shape=hexagon;perimeter=hexagonPerimeter2;whiteSpace=wrap;html=1;fixedSize=1;" vertex="1" parent="1">
          <mxGeometry x="525" y="270" width="120" height="80" as="geometry" />
        </mxCell>
        <mxCell id="Ddjd4_vdz4T8eJ4rfSuG-13" style="edgeStyle=orthogonalEdgeStyle;rounded=0;orthogonalLoop=1;jettySize=auto;html=1;exitX=0.5;exitY=1;exitDx=0;exitDy=0;entryX=0;entryY=0.5;entryDx=0;entryDy=0;" edge="1" parent="1" source="Ddjd4_vdz4T8eJ4rfSuG-11" target="Ddjd4_vdz4T8eJ4rfSuG-9">
          <mxGeometry relative="1" as="geometry">
            <Array as="points">
              <mxPoint x="585" y="460" />
              <mxPoint x="480" y="460" />
              <mxPoint x="480" y="310" />
            </Array>
          </mxGeometry>
        </mxCell>
        <mxCell id="Ddjd4_vdz4T8eJ4rfSuG-11" value="a[i] = rand()%100-50" style="rounded=0;whiteSpace=wrap;html=1;" vertex="1" parent="1">
          <mxGeometry x="525" y="370" width="120" height="60" as="geometry" />
        </mxCell>
        <mxCell id="Ddjd4_vdz4T8eJ4rfSuG-17" style="edgeStyle=orthogonalEdgeStyle;rounded=0;orthogonalLoop=1;jettySize=auto;html=1;exitX=0.5;exitY=1;exitDx=0;exitDy=0;entryX=0.5;entryY=0;entryDx=0;entryDy=0;" edge="1" parent="1" source="Ddjd4_vdz4T8eJ4rfSuG-14" target="Ddjd4_vdz4T8eJ4rfSuG-16">
          <mxGeometry relative="1" as="geometry" />
        </mxCell>
        <mxCell id="Ddjd4_vdz4T8eJ4rfSuG-20" style="edgeStyle=orthogonalEdgeStyle;rounded=0;orthogonalLoop=1;jettySize=auto;html=1;exitX=1;exitY=0.5;exitDx=0;exitDy=0;entryX=0.5;entryY=0;entryDx=0;entryDy=0;" edge="1" parent="1" source="Ddjd4_vdz4T8eJ4rfSuG-14" target="Ddjd4_vdz4T8eJ4rfSuG-19">
          <mxGeometry relative="1" as="geometry" />
        </mxCell>
        <mxCell id="Ddjd4_vdz4T8eJ4rfSuG-14" value="for(int i=0;i&amp;lt;n;i++)" style="shape=hexagon;perimeter=hexagonPerimeter2;whiteSpace=wrap;html=1;fixedSize=1;" vertex="1" parent="1">
          <mxGeometry x="695" y="360" width="120" height="80" as="geometry" />
        </mxCell>
        <mxCell id="Ddjd4_vdz4T8eJ4rfSuG-18" style="edgeStyle=orthogonalEdgeStyle;rounded=0;orthogonalLoop=1;jettySize=auto;html=1;exitX=0.5;exitY=1;exitDx=0;exitDy=0;entryX=0;entryY=0.5;entryDx=0;entryDy=0;" edge="1" parent="1" source="Ddjd4_vdz4T8eJ4rfSuG-16" target="Ddjd4_vdz4T8eJ4rfSuG-14">
          <mxGeometry relative="1" as="geometry">
            <Array as="points">
              <mxPoint x="755" y="550" />
              <mxPoint x="670" y="550" />
              <mxPoint x="670" y="400" />
            </Array>
          </mxGeometry>
        </mxCell>
        <mxCell id="Ddjd4_vdz4T8eJ4rfSuG-16" value="cout &amp;lt;&amp;lt; a[i] &amp;lt;&amp;lt; &#39; &#39;;" style="shape=parallelogram;perimeter=parallelogramPerimeter;whiteSpace=wrap;html=1;fixedSize=1;" vertex="1" parent="1">
          <mxGeometry x="695" y="460" width="120" height="60" as="geometry" />
        </mxCell>
        <mxCell id="Ddjd4_vdz4T8eJ4rfSuG-22" style="edgeStyle=orthogonalEdgeStyle;rounded=0;orthogonalLoop=1;jettySize=auto;html=1;exitX=0.5;exitY=1;exitDx=0;exitDy=0;entryX=0.5;entryY=0;entryDx=0;entryDy=0;" edge="1" parent="1" source="Ddjd4_vdz4T8eJ4rfSuG-19" target="Ddjd4_vdz4T8eJ4rfSuG-21">
          <mxGeometry relative="1" as="geometry" />
        </mxCell>
        <mxCell id="Ddjd4_vdz4T8eJ4rfSuG-19" value="cout &amp;lt;&amp;lt; endl;" style="shape=parallelogram;perimeter=parallelogramPerimeter;whiteSpace=wrap;html=1;fixedSize=1;" vertex="1" parent="1">
          <mxGeometry x="830" y="460" width="120" height="60" as="geometry" />
        </mxCell>
        <mxCell id="Ddjd4_vdz4T8eJ4rfSuG-24" style="edgeStyle=orthogonalEdgeStyle;rounded=0;orthogonalLoop=1;jettySize=auto;html=1;exitX=0.5;exitY=1;exitDx=0;exitDy=0;entryX=0.5;entryY=0;entryDx=0;entryDy=0;" edge="1" parent="1" source="Ddjd4_vdz4T8eJ4rfSuG-21" target="Ddjd4_vdz4T8eJ4rfSuG-23">
          <mxGeometry relative="1" as="geometry" />
        </mxCell>
        <mxCell id="Ddjd4_vdz4T8eJ4rfSuG-41" style="edgeStyle=orthogonalEdgeStyle;rounded=0;orthogonalLoop=1;jettySize=auto;html=1;exitX=1;exitY=0.5;exitDx=0;exitDy=0;entryX=0.5;entryY=0;entryDx=0;entryDy=0;" edge="1" parent="1" source="Ddjd4_vdz4T8eJ4rfSuG-21" target="Ddjd4_vdz4T8eJ4rfSuG-38">
          <mxGeometry relative="1" as="geometry" />
        </mxCell>
        <mxCell id="Ddjd4_vdz4T8eJ4rfSuG-21" value="for(int i = 0; i &amp;lt;n-2; i++)" style="shape=hexagon;perimeter=hexagonPerimeter2;whiteSpace=wrap;html=1;fixedSize=1;" vertex="1" parent="1">
          <mxGeometry x="830" y="540" width="120" height="80" as="geometry" />
        </mxCell>
        <mxCell id="Ddjd4_vdz4T8eJ4rfSuG-26" style="edgeStyle=orthogonalEdgeStyle;rounded=0;orthogonalLoop=1;jettySize=auto;html=1;exitX=0.5;exitY=1;exitDx=0;exitDy=0;entryX=0.5;entryY=0;entryDx=0;entryDy=0;" edge="1" parent="1" source="Ddjd4_vdz4T8eJ4rfSuG-23" target="Ddjd4_vdz4T8eJ4rfSuG-25">
          <mxGeometry relative="1" as="geometry" />
        </mxCell>
        <mxCell id="Ddjd4_vdz4T8eJ4rfSuG-37" style="edgeStyle=orthogonalEdgeStyle;rounded=0;orthogonalLoop=1;jettySize=auto;html=1;exitX=1;exitY=0.5;exitDx=0;exitDy=0;entryX=0;entryY=0.5;entryDx=0;entryDy=0;" edge="1" parent="1" source="Ddjd4_vdz4T8eJ4rfSuG-23" target="Ddjd4_vdz4T8eJ4rfSuG-21">
          <mxGeometry relative="1" as="geometry">
            <Array as="points">
              <mxPoint x="1080" y="680" />
              <mxPoint x="1080" y="1160" />
              <mxPoint x="600" y="1160" />
              <mxPoint x="600" y="580" />
            </Array>
          </mxGeometry>
        </mxCell>
        <mxCell id="Ddjd4_vdz4T8eJ4rfSuG-23" value="for(int i = n-1; j&amp;gt; 1 ; i++)" style="shape=hexagon;perimeter=hexagonPerimeter2;whiteSpace=wrap;html=1;fixedSize=1;" vertex="1" parent="1">
          <mxGeometry x="830" y="640" width="120" height="80" as="geometry" />
        </mxCell>
        <mxCell id="Ddjd4_vdz4T8eJ4rfSuG-30" style="edgeStyle=orthogonalEdgeStyle;rounded=0;orthogonalLoop=1;jettySize=auto;html=1;exitX=0;exitY=0.5;exitDx=0;exitDy=0;entryX=0.5;entryY=0;entryDx=0;entryDy=0;" edge="1" parent="1" source="Ddjd4_vdz4T8eJ4rfSuG-25" target="Ddjd4_vdz4T8eJ4rfSuG-27">
          <mxGeometry relative="1" as="geometry" />
        </mxCell>
        <mxCell id="Ddjd4_vdz4T8eJ4rfSuG-34" style="edgeStyle=orthogonalEdgeStyle;rounded=0;orthogonalLoop=1;jettySize=auto;html=1;exitX=1;exitY=0.5;exitDx=0;exitDy=0;" edge="1" parent="1" source="Ddjd4_vdz4T8eJ4rfSuG-25">
          <mxGeometry relative="1" as="geometry">
            <mxPoint x="890" y="1060" as="targetPoint" />
            <Array as="points">
              <mxPoint x="1000" y="765" />
              <mxPoint x="1000" y="1060" />
            </Array>
          </mxGeometry>
        </mxCell>
        <mxCell id="Ddjd4_vdz4T8eJ4rfSuG-25" value="if (a[j - 1] &amp;gt; a[j])" style="rhombus;whiteSpace=wrap;html=1;" vertex="1" parent="1">
          <mxGeometry x="850" y="740" width="80" height="50" as="geometry" />
        </mxCell>
        <mxCell id="Ddjd4_vdz4T8eJ4rfSuG-32" style="edgeStyle=orthogonalEdgeStyle;rounded=0;orthogonalLoop=1;jettySize=auto;html=1;exitX=0.5;exitY=1;exitDx=0;exitDy=0;entryX=0.5;entryY=0;entryDx=0;entryDy=0;" edge="1" parent="1" source="Ddjd4_vdz4T8eJ4rfSuG-27" target="Ddjd4_vdz4T8eJ4rfSuG-28">
          <mxGeometry relative="1" as="geometry" />
        </mxCell>
        <mxCell id="Ddjd4_vdz4T8eJ4rfSuG-27" value="int r = a[j]" style="rounded=0;whiteSpace=wrap;html=1;" vertex="1" parent="1">
          <mxGeometry x="720" y="810" width="120" height="60" as="geometry" />
        </mxCell>
        <mxCell id="Ddjd4_vdz4T8eJ4rfSuG-33" style="edgeStyle=orthogonalEdgeStyle;rounded=0;orthogonalLoop=1;jettySize=auto;html=1;exitX=0.5;exitY=1;exitDx=0;exitDy=0;entryX=0.5;entryY=0;entryDx=0;entryDy=0;" edge="1" parent="1" source="Ddjd4_vdz4T8eJ4rfSuG-28" target="Ddjd4_vdz4T8eJ4rfSuG-29">
          <mxGeometry relative="1" as="geometry" />
        </mxCell>
        <mxCell id="Ddjd4_vdz4T8eJ4rfSuG-28" value="int a[j] = a[j-1]" style="rounded=0;whiteSpace=wrap;html=1;" vertex="1" parent="1">
          <mxGeometry x="720" y="890" width="120" height="60" as="geometry" />
        </mxCell>
        <mxCell id="Ddjd4_vdz4T8eJ4rfSuG-35" style="edgeStyle=orthogonalEdgeStyle;rounded=0;orthogonalLoop=1;jettySize=auto;html=1;exitX=0.5;exitY=1;exitDx=0;exitDy=0;" edge="1" parent="1" source="Ddjd4_vdz4T8eJ4rfSuG-29">
          <mxGeometry relative="1" as="geometry">
            <mxPoint x="890" y="1060" as="targetPoint" />
            <Array as="points">
              <mxPoint x="780" y="1060" />
            </Array>
          </mxGeometry>
        </mxCell>
        <mxCell id="Ddjd4_vdz4T8eJ4rfSuG-29" value="int a[j-1] = r;" style="rounded=0;whiteSpace=wrap;html=1;" vertex="1" parent="1">
          <mxGeometry x="720" y="970" width="120" height="60" as="geometry" />
        </mxCell>
        <mxCell id="Ddjd4_vdz4T8eJ4rfSuG-36" value="" style="endArrow=classic;html=1;rounded=0;entryX=0;entryY=0.5;entryDx=0;entryDy=0;" edge="1" parent="1" target="Ddjd4_vdz4T8eJ4rfSuG-23">
          <mxGeometry width="50" height="50" relative="1" as="geometry">
            <mxPoint x="890" y="1060" as="sourcePoint" />
            <mxPoint x="940" y="1010" as="targetPoint" />
            <Array as="points">
              <mxPoint x="890" y="1120" />
              <mxPoint x="640" y="1120" />
              <mxPoint x="640" y="680" />
            </Array>
          </mxGeometry>
        </mxCell>
        <mxCell id="Ddjd4_vdz4T8eJ4rfSuG-38" value="for(int i=0; i&amp;lt;n; i++)" style="shape=hexagon;perimeter=hexagonPerimeter2;whiteSpace=wrap;html=1;fixedSize=1;" vertex="1" parent="1">
          <mxGeometry x="1140" y="640" width="120" height="80" as="geometry" />
        </mxCell>
        <mxCell id="Ddjd4_vdz4T8eJ4rfSuG-40" style="edgeStyle=orthogonalEdgeStyle;rounded=0;orthogonalLoop=1;jettySize=auto;html=1;exitX=0.5;exitY=1;exitDx=0;exitDy=0;entryX=0;entryY=0.5;entryDx=0;entryDy=0;" edge="1" parent="1" source="Ddjd4_vdz4T8eJ4rfSuG-39" target="Ddjd4_vdz4T8eJ4rfSuG-38">
          <mxGeometry relative="1" as="geometry" />
        </mxCell>
        <mxCell id="Ddjd4_vdz4T8eJ4rfSuG-39" value="cout &amp;lt;&amp;lt; a[i] &amp;lt;&amp;lt; &#39; &#39;;" style="shape=parallelogram;perimeter=parallelogramPerimeter;whiteSpace=wrap;html=1;fixedSize=1;" vertex="1" parent="1">
          <mxGeometry x="1140" y="735" width="120" height="60" as="geometry" />
        </mxCell>
        <mxCell id="Ddjd4_vdz4T8eJ4rfSuG-42" value="return 0;" style="strokeWidth=2;html=1;shape=mxgraph.flowchart.start_1;whiteSpace=wrap;" vertex="1" parent="1">
          <mxGeometry x="1300" y="735" width="100" height="60" as="geometry" />
        </mxCell>
        <mxCell id="Ddjd4_vdz4T8eJ4rfSuG-43" style="edgeStyle=orthogonalEdgeStyle;rounded=0;orthogonalLoop=1;jettySize=auto;html=1;exitX=1;exitY=0.5;exitDx=0;exitDy=0;entryX=0.5;entryY=0;entryDx=0;entryDy=0;entryPerimeter=0;" edge="1" parent="1" source="Ddjd4_vdz4T8eJ4rfSuG-38" target="Ddjd4_vdz4T8eJ4rfSuG-42">
          <mxGeometry relative="1" as="geometry" />
        </mxCell>
      </root>
    </mxGraphModel>
  </diagram>
</mxfile>
